<svg xmlns="http://www.w3.org/2000/svg" xmlns:xlink="http://www.w3.org/1999/xlink" width="500" zoomAndPan="magnify" viewBox="0 0 375 374.999991" height="500" preserveAspectRatio="xMidYMid meet" version="1.0"><defs><clipPath id="e3dc5cda84"><path d="M 27.511719 13.277344 L 195 13.277344 L 195 302 L 27.511719 302 Z M 27.511719 13.277344 " clip-rule="nonzero"/></clipPath><clipPath id="7a96c2624b"><path d="M 27.511719 13.277344 L 59 13.277344 L 59 44 L 27.511719 44 Z M 27.511719 13.277344 " clip-rule="nonzero"/></clipPath><clipPath id="c9a6708120"><path d="M 27.511719 271 L 59 271 L 59 302.027344 L 27.511719 302.027344 Z M 27.511719 271 " clip-rule="nonzero"/></clipPath><clipPath id="46cbe938be"><path d="M 164 13.277344 L 195 13.277344 L 195 44 L 164 44 Z M 164 13.277344 " clip-rule="nonzero"/></clipPath><clipPath id="0bb13acf90"><path d="M 164 271 L 195 271 L 195 302.027344 L 164 302.027344 Z M 164 271 " clip-rule="nonzero"/></clipPath><clipPath id="32f8327d26"><path d="M 49.296875 48.597656 L 173.046875 48.597656 L 173.046875 198.597656 L 49.296875 198.597656 Z M 49.296875 48.597656 " clip-rule="nonzero"/></clipPath><clipPath id="d0bba42257"><path d="M 227.570312 346.347656 L 258.46875 346.347656 L 258.46875 361.640625 L 227.570312 361.640625 Z M 227.570312 346.347656 " clip-rule="nonzero"/></clipPath><clipPath id="4358b2bd10"><path d="M 299.484375 346.347656 L 330.347656 346.347656 L 330.347656 361.640625 L 299.484375 361.640625 Z M 299.484375 346.347656 " clip-rule="nonzero"/></clipPath><clipPath id="4ce22140c6"><path d="M 111.355469 121 L 183 121 L 183 178 L 111.355469 178 Z M 111.355469 121 " clip-rule="nonzero"/></clipPath></defs><path fill="#ffffff" d="M 31.527344 293.328125 L 31.527344 21.605469 C 31.527344 18.914062 33.691406 16.75 36.382812 16.75 L 186.339844 16.75 C 189.027344 16.75 191.195312 18.914062 191.195312 21.605469 L 191.195312 293.328125 C 191.195312 296.015625 189.027344 298.183594 186.339844 298.183594 L 36.382812 298.183594 C 33.691406 298.183594 31.527344 296.015625 31.527344 293.328125 Z M 31.527344 293.328125 " fill-opacity="1" fill-rule="nonzero"/><g clip-path="url(#e3dc5cda84)"><path fill="#8c52ff" d="M 27.730469 293.328125 C 27.730469 298.054688 31.652344 301.980469 36.382812 301.980469 L 186.335938 301.980469 C 191.066406 301.980469 194.992188 298.054688 194.992188 293.328125 L 194.992188 21.605469 C 194.992188 16.875 191.066406 12.949219 186.335938 12.949219 L 36.382812 12.949219 C 31.652344 12.949219 27.730469 16.875 27.730469 21.605469 Z M 35.324219 293.328125 L 35.324219 21.605469 C 35.324219 20.953125 35.730469 20.546875 36.382812 20.546875 L 186.335938 20.546875 C 186.988281 20.546875 187.394531 20.953125 187.394531 21.605469 L 187.394531 293.328125 C 187.394531 293.976562 186.988281 294.382812 186.335938 294.382812 L 36.382812 294.382812 C 35.730469 294.382812 35.324219 293.976562 35.324219 293.328125 Z M 35.324219 293.328125 " fill-opacity="1" fill-rule="nonzero"/></g><g clip-path="url(#7a96c2624b)"><path fill="#5e17eb" d="M 27.730469 43.285156 L 35.324219 43.285156 L 35.324219 21.605469 C 35.324219 20.953125 35.730469 20.546875 36.382812 20.546875 L 58.574219 20.546875 L 58.574219 12.949219 L 36.382812 12.949219 C 31.652344 12.949219 27.730469 16.875 27.730469 21.605469 Z M 27.730469 43.285156 " fill-opacity="1" fill-rule="nonzero"/></g><g clip-path="url(#c9a6708120)"><path fill="#5e17eb" d="M 27.703125 271.691406 L 35.300781 271.691406 L 35.300781 293.375 C 35.300781 294.023438 35.707031 294.429688 36.359375 294.429688 L 58.550781 294.429688 L 58.550781 302.027344 L 36.359375 302.027344 C 31.628906 302.027344 27.703125 298.101562 27.703125 293.375 Z M 27.703125 271.691406 " fill-opacity="1" fill-rule="nonzero"/></g><g clip-path="url(#46cbe938be)"><path fill="#5e17eb" d="M 194.96875 43.285156 L 187.375 43.285156 L 187.375 21.605469 C 187.375 20.953125 186.96875 20.546875 186.316406 20.546875 L 164.125 20.546875 L 164.125 12.949219 L 186.316406 12.949219 C 191.046875 12.949219 194.96875 16.875 194.96875 21.605469 Z M 194.96875 43.285156 " fill-opacity="1" fill-rule="nonzero"/></g><g clip-path="url(#0bb13acf90)"><path fill="#5e17eb" d="M 194.996094 271.691406 L 187.398438 271.691406 L 187.398438 293.375 C 187.398438 294.023438 186.992188 294.429688 186.339844 294.429688 L 164.148438 294.429688 L 164.148438 302.027344 L 186.339844 302.027344 C 191.070312 302.027344 194.996094 298.101562 194.996094 293.375 Z M 194.996094 271.691406 " fill-opacity="1" fill-rule="nonzero"/></g><path fill="#e5e5e5" d="M 31.308594 293.328125 C 31.308594 296.132812 33.574219 298.402344 36.382812 298.402344 L 186.335938 298.402344 C 189.144531 298.402344 191.414062 296.132812 191.414062 293.328125 L 191.414062 21.605469 C 191.414062 18.796875 189.144531 16.527344 186.335938 16.527344 L 36.382812 16.527344 C 33.574219 16.527344 31.308594 18.796875 31.308594 21.605469 Z M 31.746094 293.328125 L 31.746094 21.605469 C 31.746094 19.03125 33.808594 16.96875 36.382812 16.96875 L 186.335938 16.96875 C 188.910156 16.96875 190.972656 19.03125 190.972656 21.605469 L 190.972656 293.328125 C 190.972656 295.898438 188.910156 297.960938 186.335938 297.960938 L 36.382812 297.960938 C 33.808594 297.960938 31.746094 295.898438 31.746094 293.328125 Z M 31.746094 293.328125 " fill-opacity="1" fill-rule="nonzero"/><g clip-path="url(#32f8327d26)"><path fill="#8c52ff" d="M 90.058594 48.597656 L 52.902344 48.597656 C 50.921875 48.597656 49.3125 50.207031 49.3125 52.183594 L 49.3125 85.507812 C 49.3125 87.484375 50.921875 89.09375 52.902344 89.09375 L 90.058594 89.09375 C 92.039062 89.09375 93.648438 87.484375 93.648438 85.507812 L 93.648438 52.183594 C 93.648438 50.207031 92.039062 48.597656 90.058594 48.597656 Z M 71.484375 55.632812 C 74.558594 55.632812 77.058594 58.128906 77.058594 61.199219 C 77.058594 64.277344 74.558594 66.78125 71.484375 66.78125 C 68.410156 66.78125 65.914062 64.277344 65.914062 61.199219 C 65.914062 58.128906 68.410156 55.632812 71.484375 55.632812 Z M 82.058594 82.070312 L 60.902344 82.070312 L 60.902344 78.472656 C 60.902344 74.480469 63.277344 71.113281 66.09375 71.113281 L 76.867188 71.113281 C 79.683594 71.113281 82.058594 74.480469 82.058594 78.472656 Z M 107.183594 55.324219 C 107.183594 54.128906 108.152344 53.15625 109.347656 53.15625 L 171.199219 53.15625 C 172.394531 53.15625 173.363281 54.128906 173.363281 55.324219 C 173.363281 56.519531 172.394531 57.492188 171.199219 57.492188 L 109.347656 57.492188 C 108.152344 57.492188 107.183594 56.519531 107.183594 55.324219 Z M 173.363281 68.851562 C 173.363281 70.046875 172.394531 71.015625 171.199219 71.015625 L 109.347656 71.015625 C 108.152344 71.015625 107.183594 70.046875 107.183594 68.851562 C 107.183594 67.652344 108.152344 66.683594 109.347656 66.683594 L 171.199219 66.683594 C 172.394531 66.683594 173.363281 67.652344 173.363281 68.851562 Z M 107.183594 82.367188 C 107.183594 81.171875 108.152344 80.199219 109.347656 80.199219 L 140.277344 80.199219 C 141.472656 80.199219 142.445312 81.171875 142.445312 82.367188 C 142.445312 83.5625 141.472656 84.535156 140.277344 84.535156 L 109.347656 84.535156 C 108.152344 84.535156 107.183594 83.5625 107.183594 82.367188 Z M 90.058594 103.234375 L 52.902344 103.234375 C 50.921875 103.234375 49.3125 104.84375 49.3125 106.824219 L 49.3125 140.148438 C 49.3125 142.125 50.921875 143.734375 52.902344 143.734375 L 90.058594 143.734375 C 92.039062 143.734375 93.648438 142.125 93.648438 140.148438 L 93.648438 106.824219 C 93.648438 104.84375 92.039062 103.234375 90.058594 103.234375 Z M 71.484375 110.261719 C 74.558594 110.261719 77.058594 112.765625 77.058594 115.839844 C 77.058594 118.914062 74.558594 121.410156 71.484375 121.410156 C 68.410156 121.410156 65.914062 118.914062 65.914062 115.839844 C 65.914062 112.765625 68.410156 110.261719 71.484375 110.261719 Z M 82.058594 136.699219 L 60.902344 136.699219 L 60.902344 133.105469 C 60.902344 129.113281 63.277344 125.742188 66.09375 125.742188 L 76.867188 125.742188 C 79.683594 125.742188 82.058594 129.113281 82.058594 133.105469 Z M 173.363281 109.953125 C 173.363281 111.152344 172.394531 112.121094 171.199219 112.121094 L 109.347656 112.121094 C 108.152344 112.121094 107.183594 111.148438 107.183594 109.953125 C 107.183594 108.757812 108.152344 107.789062 109.347656 107.789062 L 171.199219 107.789062 C 172.394531 107.789062 173.363281 108.757812 173.363281 109.953125 Z M 173.363281 123.480469 C 173.363281 124.675781 172.394531 125.648438 171.199219 125.648438 L 109.347656 125.648438 C 108.152344 125.648438 107.183594 124.675781 107.183594 123.480469 C 107.183594 122.285156 108.152344 121.3125 109.347656 121.3125 L 171.199219 121.3125 C 172.394531 121.3125 173.363281 122.285156 173.363281 123.480469 Z M 107.183594 137.007812 C 107.183594 135.808594 108.152344 134.839844 109.347656 134.839844 L 140.277344 134.839844 C 141.472656 134.839844 142.445312 135.808594 142.445312 137.007812 C 142.445312 138.203125 141.472656 139.171875 140.277344 139.171875 L 109.347656 139.171875 C 108.152344 139.171875 107.183594 138.203125 107.183594 137.007812 Z M 90.058594 157.867188 L 52.902344 157.867188 C 50.921875 157.867188 49.3125 159.476562 49.3125 161.453125 L 49.3125 194.777344 C 49.3125 196.753906 50.921875 198.363281 52.902344 198.363281 L 90.058594 198.363281 C 92.039062 198.363281 93.648438 196.753906 93.648438 194.777344 L 93.648438 161.453125 C 93.648438 159.476562 92.039062 157.867188 90.058594 157.867188 Z M 71.484375 164.898438 C 74.558594 164.898438 77.058594 167.402344 77.058594 170.480469 C 77.058594 173.550781 74.558594 176.050781 71.484375 176.050781 C 68.410156 176.050781 65.914062 173.550781 65.914062 170.480469 C 65.914062 167.402344 68.410156 164.898438 71.484375 164.898438 Z M 82.058594 191.339844 L 60.902344 191.339844 L 60.902344 187.742188 C 60.902344 183.75 63.277344 180.382812 66.09375 180.382812 L 76.867188 180.382812 C 79.683594 180.382812 82.058594 183.75 82.058594 187.742188 Z M 173.363281 164.59375 C 173.363281 165.789062 172.394531 166.757812 171.199219 166.757812 L 109.347656 166.757812 C 108.152344 166.757812 107.183594 165.789062 107.183594 164.59375 C 107.183594 163.394531 108.152344 162.425781 109.347656 162.425781 L 171.199219 162.425781 C 172.394531 162.425781 173.363281 163.398438 173.363281 164.59375 Z M 173.363281 178.117188 C 173.363281 179.316406 172.394531 180.285156 171.199219 180.285156 L 109.347656 180.285156 C 108.152344 180.285156 107.183594 179.316406 107.183594 178.117188 C 107.183594 176.921875 108.152344 175.953125 109.347656 175.953125 L 171.199219 175.953125 C 172.394531 175.953125 173.363281 176.921875 173.363281 178.117188 Z M 142.445312 191.644531 C 142.445312 192.839844 141.472656 193.8125 140.277344 193.8125 L 109.347656 193.8125 C 108.152344 193.8125 107.183594 192.839844 107.183594 191.644531 C 107.183594 190.449219 108.152344 189.476562 109.347656 189.476562 L 140.277344 189.476562 C 141.472656 189.476562 142.445312 190.449219 142.445312 191.644531 Z M 142.445312 191.644531 " fill-opacity="1" fill-rule="nonzero"/></g><path fill="#4f4784" d="M 270.769531 80.785156 C 270.769531 80.785156 261.550781 82.902344 258.933594 81.78125 C 256.316406 80.660156 254.363281 78.707031 255.691406 76.296875 C 257.046875 73.84375 266.78125 73.054688 269.152344 74.925781 C 272.019531 73.929688 274.90625 73.875 276.253906 75.171875 C 277.9375 76.796875 279.371094 81.160156 274.757812 89.011719 C 270.644531 86.519531 270.769531 80.785156 270.769531 80.785156 " fill-opacity="1" fill-rule="nonzero"/><path fill="#9d2f43" d="M 257.617188 327.878906 C 253.984375 327.878906 250.351562 327.878906 246.71875 327.878906 L 246.539062 339.460938 C 250.289062 339.460938 253.832031 339.460938 257.417969 339.460938 L 257.617188 327.878906 " fill-opacity="1" fill-rule="nonzero"/><path fill="#e96f80" d="M 246.539062 339.460938 L 246.316406 353.664062 L 257.160156 354.523438 L 257.417969 339.460938 C 253.832031 339.460938 250.289062 339.460938 246.539062 339.460938 " fill-opacity="1" fill-rule="nonzero"/><g clip-path="url(#d0bba42257)"><path fill="#4f4782" d="M 237.785156 353.308594 C 241.492188 351.6875 240.738281 348.960938 240.472656 346.984375 C 247.371094 344.464844 247.804688 352.867188 247.804688 352.867188 L 257.007812 352.34375 C 257.664062 352.304688 258.21875 352.796875 258.296875 353.449219 C 258.742188 357.351562 257.910156 361.59375 257.910156 361.59375 L 251.464844 361.523438 C 251.292969 360.65625 251.28125 359.085938 249.835938 359.175781 C 248.214844 359.285156 248.050781 360.386719 248.042969 361.488281 L 231.535156 361.640625 C 231.535156 361.640625 228.03125 361.144531 227.789062 359.667969 C 227.550781 358.191406 234.078125 354.933594 237.785156 353.308594 " fill-opacity="1" fill-rule="nonzero"/></g><path fill="#323160" d="M 229.605469 359.128906 L 229.601562 358.648438 L 257.488281 358.464844 L 257.492188 358.945312 L 229.605469 359.128906 " fill-opacity="1" fill-rule="nonzero"/><path fill="#635dac" d="M 248.109375 355.570312 L 247.625 355.570312 L 247.644531 352.910156 L 248.125 352.914062 L 248.109375 355.570312 " fill-opacity="1" fill-rule="nonzero"/><path fill="#9d2f43" d="M 310.460938 339.578125 L 309.566406 330.25 C 305.816406 330.25 302.269531 330.25 298.6875 330.25 L 299.589844 339.839844 C 303.214844 339.917969 306.835938 339.796875 310.460938 339.578125 " fill-opacity="1" fill-rule="nonzero"/><path fill="#e96f80" d="M 299.589844 339.839844 L 300.96875 354.523438 L 311.8125 353.664062 L 310.460938 339.578125 C 306.835938 339.796875 303.214844 339.917969 299.589844 339.839844 " fill-opacity="1" fill-rule="nonzero"/><g clip-path="url(#4358b2bd10)"><path fill="#4f4782" d="M 320.347656 353.308594 C 316.636719 351.6875 317.390625 348.960938 317.660156 346.984375 C 310.761719 344.464844 310.324219 352.867188 310.324219 352.867188 L 301.121094 352.34375 C 300.464844 352.304688 299.910156 352.796875 299.835938 353.449219 C 299.386719 357.351562 300.21875 361.59375 300.21875 361.59375 L 306.664062 361.523438 C 306.839844 360.65625 306.851562 359.085938 308.292969 359.175781 C 309.917969 359.285156 310.082031 360.386719 310.085938 361.488281 L 326.59375 361.640625 C 326.59375 361.640625 330.101562 361.144531 330.339844 359.667969 C 330.578125 358.191406 324.054688 354.933594 320.347656 353.308594 " fill-opacity="1" fill-rule="nonzero"/></g><path fill="#323160" d="M 328.523438 359.128906 L 300.640625 358.945312 L 300.640625 358.464844 L 328.527344 358.648438 L 328.523438 359.128906 " fill-opacity="1" fill-rule="nonzero"/><path fill="#635dac" d="M 310.023438 355.570312 L 310.003906 352.914062 L 310.488281 352.910156 L 310.503906 355.570312 L 310.023438 355.570312 " fill-opacity="1" fill-rule="nonzero"/><path fill="#4f4789" d="M 245.722656 169.050781 C 245.722656 169.050781 234.214844 291.1875 238.867188 331.082031 C 250.5 332.410156 263.792969 330.75 263.792969 330.75 C 263.792969 330.75 272.722656 240.777344 271.394531 209.195312 C 273.71875 241.109375 292.332031 330.207031 292.332031 330.207031 C 292.332031 330.207031 307.449219 332.367188 316.589844 330.207031 C 314.59375 309.261719 310.277344 241.773438 298.976562 197.394531 C 291.664062 174.289062 289.007812 168.636719 289.007812 168.636719 L 245.722656 169.050781 " fill-opacity="1" fill-rule="nonzero"/><path fill="#ec7357" d="M 259.679688 105.59375 L 261.589844 104.304688 L 273.140625 104.097656 L 275.382812 106.464844 L 275.132812 115.691406 L 259.058594 116.191406 L 259.679688 105.59375 " fill-opacity="1" fill-rule="nonzero"/><path fill="#e96f80" d="M 272.96875 87.78125 C 272.804688 84.507812 271.386719 79.699219 268.15625 79.160156 C 265.605469 78.730469 263.820312 78.90625 261.808594 79.816406 C 255.171875 82.8125 255.9375 94.65625 258.636719 97.789062 C 261.339844 100.921875 264.390625 99.398438 264.390625 99.398438 L 263.601562 109.582031 C 266.578125 109.582031 269.230469 109.582031 271.953125 109.582031 L 272.96875 87.78125 " fill-opacity="1" fill-rule="nonzero"/><path fill="#e96f80" d="M 272.472656 93.429688 C 272.472656 93.429688 278.894531 92.261719 277.308594 87.28125 C 276.335938 84.257812 272.042969 87.589844 272.042969 87.589844 L 272.472656 93.429688 " fill-opacity="1" fill-rule="nonzero"/><path fill="#9d2f43" d="M 264.390625 99.398438 L 269.5 96.632812 L 264.167969 102.621094 Z M 264.390625 99.398438 " fill-opacity="1" fill-rule="nonzero"/><path fill="#9d2f43" d="M 263.777344 88.890625 C 263.761719 89.519531 264.164062 90.039062 264.671875 90.050781 C 265.179688 90.0625 265.605469 89.5625 265.621094 88.9375 C 265.636719 88.308594 265.238281 87.789062 264.730469 87.777344 C 264.21875 87.761719 263.792969 88.261719 263.777344 88.890625 " fill-opacity="1" fill-rule="nonzero"/><path fill="#9d2f43" d="M 258.117188 88.714844 C 258.101562 89.34375 258.5 89.863281 259.011719 89.875 C 259.519531 89.886719 259.945312 89.386719 259.960938 88.757812 C 259.972656 88.132812 259.574219 87.613281 259.066406 87.601562 C 258.558594 87.585938 258.132812 88.085938 258.117188 88.714844 " fill-opacity="1" fill-rule="nonzero"/><path fill="#9d2f43" d="M 261.660156 92.210938 C 261.386719 92.171875 260.023438 91.945312 260.027344 91.050781 C 260.023438 90.675781 260.308594 90.410156 260.585938 90.152344 C 261.03125 89.734375 261.53125 89.265625 261.402344 88.226562 L 261.882812 88.167969 C 262.042969 89.449219 261.390625 90.058594 260.917969 90.5 C 260.695312 90.707031 260.507812 90.882812 260.507812 91.050781 C 260.507812 91.460938 261.304688 91.675781 261.726562 91.730469 L 261.660156 92.210938 " fill-opacity="1" fill-rule="nonzero"/><path fill="#9d2f43" d="M 266.175781 86.5625 C 264.855469 85.539062 263.148438 86.378906 263.128906 86.386719 L 262.910156 85.957031 C 262.992188 85.914062 264.910156 84.964844 266.472656 86.183594 L 266.175781 86.5625 " fill-opacity="1" fill-rule="nonzero"/><path fill="#9d2f43" d="M 262.1875 94.6875 C 261.195312 94.6875 260.394531 94.199219 260.378906 94.1875 L 260.632812 93.78125 C 260.726562 93.835938 262.859375 95.128906 264.238281 92.953125 L 264.644531 93.214844 C 263.914062 94.367188 262.988281 94.6875 262.1875 94.6875 " fill-opacity="1" fill-rule="nonzero"/><path fill="#9d2f43" d="M 258.011719 86.445312 L 257.644531 86.136719 C 257.660156 86.117188 259.171875 84.398438 260.953125 85.898438 L 260.644531 86.269531 C 259.222656 85.074219 258.0625 86.390625 258.011719 86.445312 " fill-opacity="1" fill-rule="nonzero"/><path fill="#9d2f43" d="M 272.753906 89.433594 L 272.355469 89.109375 C 272.445312 89.003906 274.636719 86.378906 277.191406 86.972656 L 277.378906 87.496094 C 274.835938 86.773438 272.773438 89.410156 272.753906 89.433594 " fill-opacity="1" fill-rule="nonzero"/><path fill="#9d2f43" d="M 275.90625 90.136719 C 275.890625 90.136719 275.871094 90.132812 275.851562 90.128906 C 275.722656 90.097656 275.644531 89.96875 275.675781 89.839844 C 275.675781 89.835938 275.78125 89.34375 275.488281 88.902344 C 275.234375 88.53125 274.769531 88.289062 274.105469 88.183594 C 273.972656 88.164062 273.882812 88.039062 273.902344 87.90625 C 273.921875 87.777344 274.046875 87.6875 274.179688 87.707031 C 274.988281 87.835938 275.566406 88.152344 275.890625 88.640625 C 276.304688 89.257812 276.148438 89.925781 276.140625 89.953125 C 276.113281 90.0625 276.015625 90.136719 275.90625 90.136719 " fill-opacity="1" fill-rule="nonzero"/><path fill="#e96f80" d="M 164.660156 166.117188 C 165.445312 162.359375 171.378906 160.179688 171.378906 160.179688 C 171.738281 160.035156 172.21875 159.933594 172.578125 159.832031 C 173.070312 159.691406 175.847656 159.1875 178.960938 158.640625 L 180.1875 164.90625 L 179.726562 164.976562 C 179.726562 164.976562 170.835938 171.148438 170.152344 170.285156 C 169.46875 169.414062 172.179688 165.652344 172.179688 165.652344 L 171.738281 165.40625 C 171.726562 165.410156 171.738281 165.40625 171.738281 165.40625 C 171.738281 165.40625 171.308594 165.683594 170.269531 165.808594 C 169.542969 165.898438 168.832031 166.398438 168.320312 166.785156 C 167.261719 167.582031 168.589844 170.136719 166.203125 169.996094 C 166.203125 169.996094 163.875 169.878906 164.660156 166.117188 " fill-opacity="1" fill-rule="nonzero"/><path fill="#9d2f43" d="M 172.097656 165.722656 L 171.738281 165.402344 L 173.707031 163.175781 L 174.066406 163.496094 L 172.097656 165.722656 " fill-opacity="1" fill-rule="nonzero"/><path fill="#e96f80" d="M 268.027344 115.441406 C 271.03125 115.441406 273.027344 110.925781 274.019531 107.933594 C 269.566406 106.734375 265.28125 106.882812 261.839844 107.445312 C 262.535156 110.5 264.238281 115.441406 268.027344 115.441406 " fill-opacity="1" fill-rule="nonzero"/><path fill="#ffffff" d="M 274.019531 107.933594 C 273.027344 110.925781 271.03125 115.441406 268.027344 115.441406 C 264.238281 115.441406 262.535156 110.5 261.839844 107.445312 C 257.332031 108.1875 254.28125 109.625 254.28125 109.625 C 254.28125 109.625 253.613281 167.472656 254.113281 173.621094 C 259.429688 175.117188 276.378906 173.789062 276.378906 173.789062 C 276.378906 173.789062 278.371094 123.089844 278.871094 109.789062 C 277.253906 108.960938 275.625 108.367188 274.019531 107.933594 " fill-opacity="1" fill-rule="nonzero"/><path fill="#ec7357" d="M 243.976562 139.878906 C 243.976562 139.878906 227.695312 155.171875 223.375 157.332031 C 219.054688 159.492188 192.300781 167.472656 180.007812 169.300781 C 179.007812 167.472656 177.347656 154.171875 177.347656 154.171875 L 216.894531 144.699219 C 216.894531 144.699219 243.480469 114.613281 246.636719 112.449219 C 249.792969 110.289062 256.109375 108.296875 256.109375 108.296875 L 256.394531 107.191406 C 256.816406 105.578125 258.246094 104.429688 259.910156 104.367188 L 261.589844 104.304688 C 261.589844 104.304688 262.335938 146.894531 259.597656 184.011719 C 259.300781 188.007812 256.683594 191.433594 252.917969 192.800781 C 245.921875 195.339844 237 197.890625 237 197.890625 C 237 197.890625 244.476562 164.8125 244.476562 159.328125 C 244.476562 153.839844 243.976562 139.878906 243.976562 139.878906 " fill-opacity="1" fill-rule="nonzero"/><path fill="#ec7357" d="M 295.15625 168.304688 C 295.15625 168.304688 291.332031 160.488281 289.507812 156.167969 C 287.675781 151.847656 288.507812 136.886719 288.507812 136.886719 L 305.457031 154.007812 Z M 319.746094 148.6875 C 316.507812 141.25 291.332031 114.777344 288.34375 112.574219 C 286.066406 110.898438 277.75 107.464844 277.75 107.464844 L 277.671875 107.253906 C 276.96875 105.355469 275.164062 104.097656 273.140625 104.097656 C 270.902344 126.976562 272.921875 165.195312 273.921875 182.210938 C 274.246094 187.699219 277.859375 192.453125 283.066406 194.203125 C 291.003906 196.871094 298.976562 197.394531 298.976562 197.394531 L 298.480469 195.066406 C 298.480469 195.066406 312.601562 172.957031 315.757812 167.140625 C 318.917969 161.320312 323.164062 156.53125 319.746094 148.6875 " fill-opacity="1" fill-rule="nonzero"/><path fill="#e96f80" d="M 285.164062 199.503906 C 285.164062 199.503906 283.359375 200.503906 282.617188 198.851562 C 281.875 197.203125 282.882812 194.230469 287.105469 187.894531 C 286.726562 190.210938 285.164062 199.503906 285.164062 199.503906 " fill-opacity="1" fill-rule="nonzero"/><path fill="#e96f80" d="M 283.605469 198.601562 C 284.132812 199.695312 284.71875 199.566406 284.71875 199.566406 C 284.71875 199.566406 287.203125 208.808594 292.746094 208.625 C 294.777344 208.558594 296.308594 203.75 295.371094 200.960938 C 294.4375 198.175781 294.328125 194.5 294.328125 194.5 L 295.390625 192.53125 C 292.65625 191.117188 289.882812 189.558594 287.105469 187.894531 C 285.164062 191.125 283.058594 197.429688 283.605469 198.601562 " fill-opacity="1" fill-rule="nonzero"/><path fill="#9d2f43" d="M 293.054688 208.542969 C 292.957031 208.542969 292.863281 208.480469 292.828125 208.382812 C 292.636719 207.863281 292.285156 207.023438 291.914062 206.132812 C 291.207031 204.441406 290.402344 202.523438 290.164062 201.546875 C 290.132812 201.417969 290.210938 201.285156 290.339844 201.253906 C 290.476562 201.226562 290.601562 201.300781 290.632812 201.433594 C 290.863281 202.371094 291.695312 204.355469 292.359375 205.945312 C 292.75 206.878906 293.085938 207.683594 293.28125 208.21875 C 293.328125 208.34375 293.265625 208.480469 293.140625 208.527344 C 293.109375 208.535156 293.082031 208.542969 293.054688 208.542969 " fill-opacity="1" fill-rule="nonzero"/><path fill="#9d2f43" d="M 290.449219 208.078125 C 290.359375 208.078125 290.269531 208.027344 290.230469 207.9375 C 289.644531 206.65625 287.554688 201.550781 287.535156 201.5 C 287.484375 201.375 287.542969 201.234375 287.664062 201.183594 C 287.789062 201.136719 287.929688 201.191406 287.980469 201.316406 C 288 201.367188 290.089844 206.464844 290.667969 207.738281 C 290.722656 207.859375 290.667969 208 290.546875 208.058594 C 290.515625 208.070312 290.484375 208.078125 290.449219 208.078125 " fill-opacity="1" fill-rule="nonzero"/><path fill="#9d2f43" d="M 294.574219 206.820312 C 294.472656 206.820312 294.375 206.753906 294.34375 206.648438 L 292.582031 200.683594 C 292.542969 200.554688 292.617188 200.417969 292.742188 200.382812 C 292.871094 200.34375 293.007812 200.417969 293.042969 200.542969 L 294.804688 206.511719 C 294.84375 206.636719 294.769531 206.773438 294.644531 206.8125 C 294.621094 206.816406 294.597656 206.820312 294.574219 206.820312 " fill-opacity="1" fill-rule="nonzero"/><path fill="#9d2f43" d="M 284.28125 199.769531 L 283.972656 197.996094 L 284.449219 197.914062 L 284.757812 199.6875 L 284.28125 199.769531 " fill-opacity="1" fill-rule="nonzero"/><path fill="#ec7357" d="M 287.035156 186.878906 L 285.976562 188.625 C 285.976562 188.625 292.765625 193.484375 295.195312 193.921875 C 295.882812 192.988281 296.320312 191.988281 296.320312 191.988281 L 287.035156 186.878906 " fill-opacity="1" fill-rule="nonzero"/><path fill="#bc5b4b" d="M 217.3125 144.894531 L 217.222656 144.417969 L 222.996094 143.296875 L 223.085938 143.773438 L 217.3125 144.894531 " fill-opacity="1" fill-rule="nonzero"/><path fill="#bc5b4b" d="M 244.21875 139.886719 L 243.738281 139.867188 C 243.75 139.515625 244.082031 131.15625 245.074219 127.515625 L 245.539062 127.640625 C 244.5625 131.230469 244.222656 139.800781 244.21875 139.886719 " fill-opacity="1" fill-rule="nonzero"/><path fill="#bc5b4b" d="M 259.550781 172.070312 C 254.769531 163.003906 250.429688 140.316406 250.386719 140.089844 L 250.347656 139.875 L 260.605469 136.78125 L 251.355469 125.976562 L 255.832031 108.433594 L 256.300781 108.550781 L 251.886719 125.855469 L 261.453125 137.03125 L 250.902344 140.210938 C 251.355469 142.546875 255.476562 163.3125 259.976562 171.847656 L 259.550781 172.070312 " fill-opacity="1" fill-rule="nonzero"/><path fill="#bc5b4b" d="M 298.414062 195.296875 C 298.324219 195.273438 289.519531 192.761719 283.6875 186.925781 L 283.574219 186.8125 L 283.632812 186.667969 C 286.230469 179.980469 294.792969 168.398438 294.878906 168.285156 L 295.265625 168.570312 C 295.179688 168.6875 286.78125 180.046875 284.140625 186.695312 C 289.882812 192.363281 298.457031 194.808594 298.542969 194.832031 L 298.414062 195.296875 " fill-opacity="1" fill-rule="nonzero"/><path fill="#bc5b4b" d="M 305.816406 153.984375 L 305.429688 153.699219 L 310.082031 147.339844 L 310.472656 147.625 L 305.816406 153.984375 " fill-opacity="1" fill-rule="nonzero"/><path fill="#bc5b4b" d="M 288.328125 137.042969 L 284.007812 132.058594 L 284.371094 131.742188 L 288.691406 136.726562 L 288.328125 137.042969 " fill-opacity="1" fill-rule="nonzero"/><path fill="#bc5b4b" d="M 273.847656 170.667969 L 273.429688 170.425781 C 280.023438 158.96875 283.429688 143.425781 283.828125 141.519531 L 272.171875 136.632812 L 282.34375 125.230469 L 277.578125 107.808594 L 278.046875 107.679688 L 282.878906 125.355469 L 272.984375 136.453125 L 284.378906 141.226562 L 284.339844 141.421875 C 284.308594 141.589844 280.886719 158.433594 273.847656 170.667969 " fill-opacity="1" fill-rule="nonzero"/><g clip-path="url(#4ce22140c6)"><path fill="#4f4789" d="M 181.15625 177.019531 L 111.355469 122.585938 L 111.863281 121.804688 L 182.425781 174.652344 L 181.15625 177.019531 " fill-opacity="1" fill-rule="nonzero"/></g><path fill="#e96f80" d="M 171.589844 166.527344 L 170.402344 168.632812 C 170.402344 168.632812 170.824219 169.789062 171.929688 169.820312 C 172.492188 169.488281 174.253906 168.53125 174.253906 168.53125 C 174.253906 168.53125 172.378906 166.652344 171.589844 166.527344 " fill-opacity="1" fill-rule="nonzero"/><path fill="#4f4789" d="M 258.933594 81.78125 C 258.933594 81.78125 265.414062 84.585938 271.832031 81.472656 C 269.277344 77.230469 266.597656 76.296875 266.597656 76.296875 C 266.597656 76.296875 259.492188 78.726562 258.933594 81.78125 " fill-opacity="1" fill-rule="nonzero"/><path fill="#bc5b4b" d="M 283.382812 194.453125 L 282.960938 194.222656 L 285.957031 188.714844 L 286.378906 188.945312 L 283.382812 194.453125 " fill-opacity="1" fill-rule="nonzero"/><path fill="#bc5b4b" d="M 294.554688 197.050781 L 294.1875 193.320312 L 294.667969 193.273438 L 295.03125 197.003906 L 294.554688 197.050781 " fill-opacity="1" fill-rule="nonzero"/><path fill="#323160" d="M 271.152344 209.203125 L 270.210938 180.703125 L 270.695312 180.6875 L 271.636719 209.1875 L 271.152344 209.203125 " fill-opacity="1" fill-rule="nonzero"/><path fill="#ffffff" d="M 261.644531 107.644531 L 263.34375 105.121094 L 268.023438 109.617188 L 271.921875 105.121094 L 272.792969 107.644531 L 272.425781 114.296875 L 267.65625 116.5 L 262.703125 113.746094 L 261.644531 107.644531 " fill-opacity="1" fill-rule="nonzero"/><path fill="#ec7357" d="M 269.316406 114.5625 L 268.070312 110.484375 L 266.132812 114.25 L 260.585938 110.039062 L 260.875 109.652344 L 265.964844 113.519531 L 268.1875 109.207031 L 269.632812 113.941406 L 274.773438 112.125 L 274.9375 112.582031 L 269.316406 114.5625 " fill-opacity="1" fill-rule="nonzero"/></svg>