<svg xmlns="http://www.w3.org/2000/svg" xmlns:xlink="http://www.w3.org/1999/xlink" width="500" zoomAndPan="magnify" viewBox="0 0 375 374.999991" height="500" preserveAspectRatio="xMidYMid meet" version="1.0"><defs><clipPath id="2c708d0b66"><path d="M 60 229 L 82 229 L 82 274.855469 L 60 274.855469 Z M 60 229 " clip-rule="nonzero"/></clipPath><clipPath id="9fbd30d6d1"><path d="M 37.5 212 L 71 212 L 71 274.855469 L 37.5 274.855469 Z M 37.5 212 " clip-rule="nonzero"/></clipPath><clipPath id="36513c471d"><path d="M 78 230 L 280 230 L 280 274.855469 L 78 274.855469 Z M 78 230 " clip-rule="nonzero"/></clipPath><clipPath id="54b531256d"><path d="M 242 191 L 314 191 L 314 274.855469 L 242 274.855469 Z M 242 191 " clip-rule="nonzero"/></clipPath><clipPath id="87b762aa0c"><path d="M 120 194 L 279 194 L 279 274.855469 L 120 274.855469 Z M 120 194 " clip-rule="nonzero"/></clipPath></defs><g clip-path="url(#2c708d0b66)"><path fill="#0f1323" d="M 67.433594 274.066406 C 73.226562 274.503906 80.15625 264.855469 81.035156 253.976562 C 81.914062 243.097656 74.890625 230.289062 69.101562 229.765625 C 63.308594 229.238281 61.640625 238.273438 60.5 249.152344 C 59.183594 261.960938 61.640625 273.539062 67.433594 274.066406 Z M 67.433594 274.066406 " fill-opacity="1" fill-rule="nonzero"/></g><path fill="#fc8760" d="M 84.984375 269.066406 L 57.78125 266.695312 L 57.867188 244.238281 C 67.695312 248.539062 76.734375 252.660156 85.773438 253.101562 Z M 84.984375 269.066406 " fill-opacity="1" fill-rule="nonzero"/><g clip-path="url(#9fbd30d6d1)"><path fill="#d15b30" d="M 42.160156 212.746094 L 40.492188 212.132812 C 38.738281 212.308594 37.507812 213.621094 37.683594 215.113281 L 39 227.132812 L 39.703125 227.308594 L 39.789062 228.183594 L 39.175781 228.273438 L 39.265625 228.976562 L 39.964844 228.886719 L 40.054688 229.675781 L 39.351562 229.765625 L 39.441406 230.464844 L 40.140625 230.464844 L 40.230469 231.167969 L 39.527344 231.429688 L 43.914062 272.3125 C 44.089844 274.066406 45.320312 274.855469 47.425781 274.679688 C 48.742188 274.59375 48.917969 274.066406 49.445312 273.453125 C 49.445312 273.453125 59.007812 274.679688 65.765625 271.523438 C 67.34375 270.734375 67.871094 268.714844 66.730469 267.3125 C 63.835938 263.714844 59.796875 256.519531 66.996094 250.378906 L 67.871094 248.714844 C 69.890625 248.363281 70.769531 247.660156 69.890625 246.082031 C 69.890625 246.082031 55.851562 234.0625 52.867188 223.449219 C 51.988281 220.554688 50.761719 218.535156 48.390625 215.554688 C 46.722656 213.535156 45.320312 211.691406 42.160156 212.746094 Z M 42.160156 212.746094 " fill-opacity="1" fill-rule="nonzero"/></g><path fill="#0f1323" d="M 49.179688 272.488281 C 49.445312 272.488281 49.53125 272.3125 49.53125 272.046875 L 42.773438 212.921875 C 42.773438 212.746094 42.597656 212.570312 42.335938 212.570312 C 42.160156 212.570312 41.984375 212.746094 41.984375 213.007812 L 48.742188 272.136719 C 48.828125 272.398438 49.003906 272.574219 49.179688 272.488281 Z M 49.179688 272.488281 " fill-opacity="1" fill-rule="nonzero"/><path fill="#0f1323" d="M 64.800781 245.820312 C 64.886719 245.820312 65.0625 245.730469 65.152344 245.644531 C 65.152344 245.644531 65.941406 244.238281 67.257812 243.886719 C 67.433594 243.886719 67.609375 243.625 67.519531 243.449219 C 67.433594 243.273438 67.257812 243.097656 67.082031 243.1875 C 65.414062 243.539062 64.539062 245.203125 64.449219 245.292969 C 64.363281 245.46875 64.449219 245.730469 64.625 245.820312 C 64.625 245.820312 64.714844 245.820312 64.800781 245.820312 Z M 64.800781 245.820312 " fill-opacity="1" fill-rule="nonzero"/><path fill="#0f1323" d="M 61.992188 242.835938 C 62.082031 242.835938 62.253906 242.746094 62.34375 242.660156 C 62.34375 242.660156 63.132812 241.257812 64.449219 240.90625 C 64.625 240.90625 64.800781 240.640625 64.714844 240.46875 C 64.714844 240.292969 64.449219 240.117188 64.273438 240.203125 C 62.605469 240.554688 61.730469 242.222656 61.640625 242.308594 C 61.554688 242.484375 61.640625 242.746094 61.816406 242.835938 C 61.816406 242.835938 61.90625 242.835938 61.992188 242.835938 Z M 61.992188 242.835938 " fill-opacity="1" fill-rule="nonzero"/><path fill="#0f1323" d="M 59.359375 239.941406 C 59.449219 239.941406 59.625 239.851562 59.710938 239.765625 C 59.710938 239.765625 60.5 238.363281 61.816406 238.011719 C 61.992188 238.011719 62.167969 237.746094 62.082031 237.570312 C 61.992188 237.398438 61.816406 237.222656 61.640625 237.308594 C 59.972656 237.660156 59.097656 239.328125 59.007812 239.414062 C 58.921875 239.589844 59.007812 239.851562 59.183594 239.941406 C 59.273438 239.941406 59.273438 239.941406 59.359375 239.941406 Z M 59.359375 239.941406 " fill-opacity="1" fill-rule="nonzero"/><path fill="#0f1323" d="M 47.335938 252.046875 C 47.335938 252.046875 47.425781 252.046875 47.425781 252.046875 C 47.601562 251.960938 52.867188 250.027344 54.007812 246.871094 C 54.359375 245.820312 54.269531 244.679688 53.566406 243.539062 C 52.425781 241.695312 51.988281 239.851562 52.339844 238.539062 C 52.515625 237.921875 52.953125 237.484375 53.566406 237.132812 C 57.339844 235.464844 64.011719 244.152344 66.292969 247.660156 C 66.378906 247.835938 66.644531 247.835938 66.820312 247.75 C 66.996094 247.660156 66.996094 247.398438 66.90625 247.222656 C 66.554688 246.695312 58.394531 234.238281 53.304688 236.433594 C 52.425781 236.78125 51.902344 237.398438 51.636719 238.273438 C 51.199219 239.675781 51.636719 241.78125 52.953125 243.886719 C 53.480469 244.765625 53.65625 245.644531 53.304688 246.519531 C 52.339844 249.328125 47.25 251.257812 47.164062 251.257812 C 46.988281 251.34375 46.898438 251.519531 46.988281 251.695312 C 47.074219 251.960938 47.25 252.046875 47.335938 252.046875 Z M 47.335938 252.046875 " fill-opacity="0.2" fill-rule="nonzero"/><path fill="#f8f2df" d="M 146.761719 251.609375 C 146.675781 239.414062 136.757812 229.589844 124.5625 229.589844 L 67.171875 229.851562 C 79.367188 229.765625 80.597656 273.976562 67.34375 273.976562 L 124.738281 273.714844 C 137.023438 273.714844 146.851562 263.800781 146.761719 251.609375 Z M 146.761719 251.609375 " fill-opacity="1" fill-rule="nonzero"/><g clip-path="url(#36513c471d)"><path fill="#f8f2df" d="M 279.269531 230.203125 L 78.664062 230.203125 L 78.664062 274.066406 L 279.269531 274.066406 Z M 279.269531 230.203125 " fill-opacity="1" fill-rule="nonzero"/></g><path fill="#0f1323" d="M 114.558594 269.765625 C 119.734375 267.835938 118.59375 255.554688 114.90625 245.820312 C 111.222656 236.082031 103.148438 228.710938 97.972656 230.730469 C 92.792969 232.660156 94.988281 241.167969 98.410156 250.996094 C 102.445312 262.660156 109.378906 271.699219 114.558594 269.765625 Z M 114.558594 269.765625 " fill-opacity="1" fill-rule="nonzero"/><path fill="#fc8760" d="M 126.492188 250.378906 L 99.726562 264.765625 L 89.109375 240.992188 C 99.726562 239.589844 106.132812 235.730469 120.523438 231.605469 Z M 126.492188 250.378906 " fill-opacity="1" fill-rule="nonzero"/><path fill="#d15b30" d="M 59.359375 222.132812 L 57.605469 222.484375 C 56.199219 223.535156 55.851562 225.289062 56.726562 226.519531 L 64.011719 236.167969 L 64.714844 235.992188 L 65.238281 236.695312 L 64.714844 237.046875 L 65.152344 237.570312 L 65.679688 237.132812 L 66.203125 237.746094 L 65.679688 238.1875 L 66.117188 238.710938 L 66.730469 238.273438 L 67.171875 238.800781 L 66.730469 239.414062 L 91.566406 272.222656 C 92.617188 273.628906 94.109375 273.628906 95.777344 272.488281 C 96.917969 271.699219 96.742188 271.171875 96.832031 270.382812 C 96.832031 270.382812 105.695312 266.523438 109.820312 260.382812 C 110.785156 258.890625 110.167969 256.871094 108.503906 256.257812 C 104.203125 254.679688 97.007812 250.554688 99.988281 241.609375 L 99.902344 239.765625 C 101.480469 238.449219 101.832031 237.398438 100.253906 236.433594 C 100.253906 236.433594 82.089844 233.359375 74.015625 225.90625 C 71.820312 223.886719 69.714844 222.835938 66.117188 221.429688 C 63.746094 220.464844 61.554688 219.5 59.359375 222.132812 Z M 59.359375 222.132812 " fill-opacity="1" fill-rule="nonzero"/><path fill="#0f1323" d="M 96.042969 269.765625 C 96.128906 269.765625 96.214844 269.765625 96.304688 269.679688 C 96.480469 269.59375 96.480469 269.328125 96.390625 269.152344 L 60.0625 221.957031 C 59.972656 221.78125 59.710938 221.78125 59.535156 221.871094 C 59.359375 221.957031 59.359375 222.21875 59.449219 222.394531 L 95.777344 269.59375 C 95.777344 269.679688 95.953125 269.765625 96.042969 269.765625 Z M 96.042969 269.765625 " fill-opacity="1" fill-rule="nonzero"/><path fill="#0f1323" d="M 95.601562 238.800781 C 95.777344 238.800781 95.953125 238.625 95.953125 238.449219 C 95.953125 238.449219 95.867188 236.78125 96.917969 235.90625 C 97.09375 235.730469 97.09375 235.554688 96.917969 235.378906 C 96.742188 235.203125 96.566406 235.203125 96.390625 235.378906 C 95.164062 236.519531 95.25 238.449219 95.25 238.539062 C 95.25 238.625 95.425781 238.800781 95.601562 238.800781 Z M 95.601562 238.800781 " fill-opacity="1" fill-rule="nonzero"/><path fill="#0f1323" d="M 91.652344 237.746094 C 91.828125 237.746094 92.003906 237.570312 92.003906 237.398438 C 92.003906 237.398438 91.917969 235.730469 92.96875 234.851562 C 93.144531 234.675781 93.144531 234.5 92.96875 234.328125 C 92.792969 234.152344 92.617188 234.152344 92.441406 234.328125 C 91.214844 235.464844 91.300781 237.398438 91.300781 237.484375 C 91.300781 237.570312 91.476562 237.746094 91.652344 237.746094 Z M 91.652344 237.746094 " fill-opacity="1" fill-rule="nonzero"/><path fill="#0f1323" d="M 87.96875 236.605469 C 88.144531 236.605469 88.320312 236.433594 88.320312 236.257812 C 88.320312 236.257812 88.230469 234.589844 89.285156 233.710938 C 89.460938 233.535156 89.460938 233.359375 89.285156 233.1875 C 89.109375 233.011719 88.933594 233.011719 88.757812 233.1875 C 87.527344 234.328125 87.617188 236.257812 87.617188 236.34375 C 87.617188 236.433594 87.792969 236.605469 87.96875 236.605469 Z M 87.96875 236.605469 " fill-opacity="1" fill-rule="nonzero"/><path fill="#0f1323" d="M 83.929688 253.101562 C 84.019531 253.101562 84.105469 253.101562 84.195312 252.925781 C 84.371094 252.75 87.792969 248.363281 87.179688 245.117188 C 86.914062 243.976562 86.210938 243.097656 85.070312 242.484375 C 83.140625 241.519531 81.738281 240.117188 81.472656 238.886719 C 81.296875 238.273438 81.472656 237.660156 81.824219 237.046875 C 84.195312 233.710938 94.375 237.660156 98.148438 239.503906 C 98.324219 239.589844 98.585938 239.503906 98.671875 239.328125 C 98.761719 239.152344 98.671875 238.886719 98.5 238.800781 C 97.972656 238.539062 84.546875 232.046875 81.296875 236.605469 C 80.773438 237.398438 80.597656 238.1875 80.773438 239.0625 C 81.121094 240.554688 82.613281 242.046875 84.722656 243.1875 C 85.6875 243.714844 86.210938 244.328125 86.386719 245.292969 C 87.003906 248.273438 83.667969 252.484375 83.578125 252.484375 C 83.492188 252.660156 83.492188 252.925781 83.667969 253.011719 C 83.753906 253.101562 83.84375 253.101562 83.929688 253.101562 Z M 83.929688 253.101562 " fill-opacity="0.2" fill-rule="nonzero"/><path fill="#f8f2df" d="M 174.316406 218.007812 C 169.316406 207.480469 156.679688 202.921875 146.148438 207.921875 L 97.972656 230.640625 C 108.589844 225.640625 126.054688 264.328125 114.558594 269.679688 L 164.226562 246.167969 C 174.757812 241.257812 179.320312 228.625 174.316406 218.007812 Z M 174.316406 218.007812 " fill-opacity="1" fill-rule="nonzero"/><g clip-path="url(#54b531256d)"><path fill="#f8f2df" d="M 304.457031 191.605469 C 304.457031 191.605469 335.171875 272.664062 282.871094 274.679688 L 253.03125 273.976562 C 249.875 273.890625 245.046875 273.890625 244.34375 270.820312 C 238.027344 242.746094 255.664062 200.640625 255.664062 200.640625 Z M 304.457031 191.605469 " fill-opacity="1" fill-rule="nonzero"/></g><g clip-path="url(#87b762aa0c)"><path fill="#f8f2df" d="M 256.367188 274.066406 C 264.441406 274.066406 272.164062 269.59375 276.023438 261.871094 C 281.378906 250.996094 276.988281 237.835938 266.109375 232.484375 L 196.871094 198.09375 C 196.695312 198.007812 196.519531 197.921875 196.34375 197.832031 C 186.425781 193.269531 174.84375 193.621094 165.277344 198.796875 L 133.601562 213.621094 C 122.628906 218.796875 117.890625 231.78125 122.980469 242.746094 C 128.160156 253.714844 141.148438 258.449219 152.117188 253.363281 L 181.6875 239.503906 L 246.625 271.785156 C 249.785156 273.277344 253.121094 274.066406 256.367188 274.066406 Z M 256.367188 274.066406 " fill-opacity="1" fill-rule="nonzero"/></g><path fill="#0f1323" d="M 257.246094 225.554688 C 257.507812 225.554688 257.683594 225.378906 257.683594 225.113281 L 257.683594 193.796875 C 257.683594 193.535156 257.507812 193.359375 257.246094 193.359375 C 256.980469 193.359375 256.804688 193.535156 256.804688 193.796875 L 256.804688 225.113281 C 256.804688 225.378906 256.980469 225.554688 257.246094 225.554688 Z M 257.246094 225.554688 " fill-opacity="1" fill-rule="nonzero"/><path fill="#0f1323" d="M 277.605469 233.886719 C 277.78125 233.886719 277.953125 233.800781 278.042969 233.625 C 278.128906 233.359375 277.953125 233.1875 277.78125 233.097656 L 248.292969 223.007812 C 248.03125 222.921875 247.855469 223.007812 247.769531 223.273438 C 247.679688 223.535156 247.855469 223.710938 248.03125 223.800781 L 277.515625 233.886719 C 277.515625 233.886719 277.605469 233.886719 277.605469 233.886719 Z M 277.605469 233.886719 " fill-opacity="1" fill-rule="nonzero"/><path fill="#0f1323" d="M 244.34375 271.347656 C 244.519531 271.347656 244.695312 271.257812 244.695312 271.082031 C 244.785156 270.90625 244.695312 270.644531 244.519531 270.46875 L 185.8125 240.378906 C 185.726562 240.292969 185.550781 240.292969 185.460938 240.378906 L 116.488281 269.328125 C 116.3125 269.417969 116.136719 269.679688 116.222656 269.855469 C 116.3125 270.03125 116.574219 270.207031 116.75 270.117188 L 185.550781 241.257812 L 244.082031 271.257812 C 244.167969 271.347656 244.257812 271.347656 244.34375 271.347656 Z M 244.34375 271.347656 " fill-opacity="1" fill-rule="nonzero"/><path fill="#fc8760" d="M 255.3125 185.199219 L 253.910156 210.203125 L 294.1875 214.324219 L 308.230469 180.636719 C 315.601562 169.410156 320.777344 158.355469 319.460938 150.285156 L 301.824219 139.933594 C 301.824219 139.933594 295.679688 139.40625 297.171875 123.441406 L 294.890625 123.96875 L 279.972656 127.476562 L 279.886719 132.390625 L 280.148438 137.039062 L 280.238281 138.179688 C 280.238281 138.355469 280.238281 138.53125 280.148438 138.703125 C 279.972656 139.144531 279.621094 139.40625 279.183594 139.496094 L 269.179688 141.425781 C 266.808594 141.863281 264.878906 143.53125 264.175781 145.8125 C 261.808594 152.742188 262.335938 156.164062 256.105469 161.863281 C 251.714844 165.8125 249.785156 179.761719 255.3125 185.199219 Z M 255.3125 185.199219 " fill-opacity="1" fill-rule="nonzero"/><path fill="#0f1323" d="M 279.886719 127.476562 L 279.796875 132.390625 L 280.0625 137.039062 L 280.148438 138.179688 C 280.148438 138.355469 280.148438 138.53125 280.0625 138.703125 C 282.957031 139.320312 291.820312 136.863281 294.628906 127.300781 Z M 279.886719 127.476562 " fill-opacity="1" fill-rule="nonzero"/><path fill="#7b76d9" d="M 301.472656 139.582031 C 275.585938 157.128906 273.214844 142.476562 273.039062 140.636719 C 273.039062 140.546875 272.953125 140.460938 272.863281 140.460938 L 266.984375 141.6875 C 266.019531 141.863281 265.054688 142.300781 264.351562 143.003906 C 260.492188 146.601562 251.980469 154.058594 251.101562 172.304688 C 250.398438 185.289062 252.242188 205.550781 250.488281 213.621094 C 249.960938 215.992188 251.191406 218.359375 253.382812 219.324219 C 260.578125 222.660156 277.164062 227.660156 310.949219 222.308594 C 312.355469 222.132812 313.40625 220.902344 313.496094 219.5 L 311.300781 191.867188 C 311.652344 187.480469 312.707031 183.183594 314.460938 179.058594 C 317.882812 170.988281 323.148438 156.074219 319.460938 150.285156 C 314.636719 142.742188 303.578125 139.933594 301.910156 139.496094 C 301.824219 139.496094 301.648438 139.496094 301.472656 139.582031 Z M 301.472656 139.582031 " fill-opacity="1" fill-rule="nonzero"/><path fill="#0f1323" d="M 282.519531 212.132812 C 286.816406 212.746094 288.398438 207.308594 289.625 202.746094 C 290.855469 198.183594 289.449219 193.882812 286.554688 193.269531 C 283.660156 192.65625 282.078125 196.339844 280.761719 200.992188 C 279.097656 206.253906 279.535156 211.691406 282.519531 212.132812 Z M 282.519531 212.132812 " fill-opacity="1" fill-rule="nonzero"/><path fill="#fc8760" d="M 265.667969 203.007812 C 265.667969 203.007812 270.757812 203.183594 274.355469 202.65625 C 277.953125 202.132812 292.347656 207.21875 292.347656 207.21875 L 292.609375 197.042969 C 292.609375 197.042969 285.5 197.570312 281.902344 195.902344 C 278.304688 194.234375 265.667969 203.007812 265.667969 203.007812 Z M 265.667969 203.007812 " fill-opacity="1" fill-rule="nonzero"/><path fill="#7b76d9" d="M 314.898438 206.515625 C 315.777344 201.253906 311.390625 196.339844 305.070312 195.375 L 285.5 193.09375 C 291.730469 193.972656 289.1875 213.007812 282.429688 212.042969 L 295.332031 213.621094 C 301.386719 214.0625 314.109375 211.691406 314.898438 206.515625 Z M 314.898438 206.515625 " fill-opacity="1" fill-rule="nonzero"/><path fill="#7b76d9" d="M 314.199219 215.113281 C 316.65625 215.113281 319.023438 214.148438 320.867188 212.484375 C 322.886719 210.550781 323.9375 207.921875 323.851562 205.203125 L 322.269531 156.953125 C 322.09375 151.601562 317.621094 147.476562 312.355469 147.652344 C 307 147.828125 302.878906 152.300781 303.050781 157.652344 L 304.28125 195.023438 L 300.15625 194.675781 C 294.890625 194.234375 290.152344 198.183594 289.714844 203.445312 C 289.273438 208.796875 293.222656 213.449219 298.488281 213.886719 L 313.496094 215.203125 C 313.671875 215.113281 313.933594 215.113281 314.199219 215.113281 Z M 314.199219 215.113281 " fill-opacity="1" fill-rule="nonzero"/><path fill="#f8f2df" d="M 268.300781 170.460938 L 263.300781 167.304688 C 252.066406 169.671875 241.710938 176.425781 240.222656 182.21875 L 237.675781 180.988281 C 237.675781 180.988281 225.828125 173.09375 216.964844 172.390625 L 236.097656 186.078125 L 249.699219 184.148438 Z M 268.300781 170.460938 " fill-opacity="1" fill-rule="nonzero"/><path fill="#0f1323" d="M 241.886719 183.359375 L 268.390625 168.53125 L 291.46875 190.988281 L 260.492188 206.78125 L 244.082031 199.585938 L 217.054688 172.304688 L 237.761719 183.621094 Z M 241.886719 183.359375 " fill-opacity="1" fill-rule="nonzero"/><path fill="#fc8760" d="M 241.886719 198.359375 C 241.886719 198.359375 241.800781 197.921875 242.0625 195.816406 C 242.414062 193.882812 243.730469 193.796875 244.167969 190.902344 C 244.34375 189.9375 247.066406 191.164062 246.714844 194.324219 C 246.363281 197.394531 246.625 195.375 246.625 195.375 C 246.625 195.375 247.855469 196.253906 248.910156 194.851562 C 249.960938 193.445312 254.261719 188.621094 254.261719 188.621094 C 255.664062 187.042969 257.859375 188.359375 256.628906 190.375 L 253.207031 196.164062 C 253.207031 196.164062 253.648438 196.691406 254.085938 196.339844 C 254.523438 195.988281 261.546875 189.148438 261.546875 189.148438 C 264.089844 186.953125 265.667969 189.148438 263.914062 191.164062 L 258.386719 197.921875 L 258.738281 198.09375 L 265.757812 191.777344 C 267.601562 190.113281 270.234375 191.515625 267.949219 193.796875 L 263.300781 198.886719 C 263.210938 198.972656 263.300781 199.148438 263.476562 199.058594 L 268.652344 196.164062 C 270.582031 195.289062 271.898438 196.953125 269.882812 198.183594 C 269.882812 198.183594 259.789062 205.027344 259 205.027344 C 258.210938 205.027344 254.347656 205.816406 254.347656 205.816406 C 254.347656 205.816406 252.855469 211.867188 249.875 211.691406 C 246.890625 211.515625 239.253906 209.585938 239.78125 205.027344 C 240.132812 200.375 241.886719 198.359375 241.886719 198.359375 Z M 241.886719 198.359375 " fill-opacity="1" fill-rule="nonzero"/><path fill="#d15b30" d="M 255.664062 200.992188 C 255.753906 200.992188 255.753906 200.992188 255.839844 200.902344 C 256.191406 200.464844 258.472656 198.359375 258.5625 198.359375 C 258.648438 198.269531 258.648438 198.183594 258.5625 198.007812 C 258.472656 197.832031 258.386719 197.921875 258.210938 198.007812 C 258.121094 198.09375 255.929688 200.113281 255.488281 200.550781 C 255.402344 200.640625 255.402344 200.816406 255.488281 200.902344 C 255.578125 200.902344 255.578125 200.992188 255.664062 200.992188 Z M 255.664062 200.992188 " fill-opacity="1" fill-rule="nonzero"/><path fill="#d15b30" d="M 258.5625 202.921875 C 258.648438 202.921875 258.648438 202.921875 258.738281 202.832031 L 262.859375 199.5 C 262.949219 199.410156 262.949219 199.324219 262.859375 199.148438 C 262.773438 199.058594 262.6875 199.058594 262.511719 199.148438 L 258.386719 202.480469 C 258.296875 202.570312 258.296875 202.65625 258.386719 202.832031 C 258.386719 202.921875 258.472656 202.921875 258.5625 202.921875 Z M 258.5625 202.921875 " fill-opacity="1" fill-rule="nonzero"/><path fill="#d15b30" d="M 251.804688 198.007812 C 251.890625 198.007812 251.890625 198.007812 251.980469 197.921875 L 253.472656 196.515625 C 253.558594 196.429688 253.558594 196.339844 253.472656 196.164062 C 253.382812 196.078125 253.296875 196.078125 253.121094 196.164062 L 251.628906 197.570312 C 251.539062 197.65625 251.539062 197.746094 251.628906 197.921875 C 251.628906 198.007812 251.714844 198.007812 251.804688 198.007812 Z M 251.804688 198.007812 " fill-opacity="1" fill-rule="nonzero"/><path fill="#d15b30" d="M 242.503906 205.203125 C 242.503906 205.203125 242.589844 205.203125 242.503906 205.203125 C 242.679688 205.203125 242.765625 205.027344 242.679688 204.9375 C 242.679688 204.9375 242.328125 203.796875 242.589844 202.21875 C 242.851562 200.550781 242.328125 199.148438 242.238281 199.058594 C 242.152344 198.972656 242.0625 198.886719 241.976562 198.972656 C 241.886719 199.058594 241.800781 199.148438 241.886719 199.234375 C 241.886719 199.234375 242.414062 200.640625 242.152344 202.21875 C 241.886719 203.886719 242.238281 205.027344 242.328125 205.113281 C 242.328125 205.113281 242.414062 205.203125 242.503906 205.203125 Z M 242.503906 205.203125 " fill-opacity="1" fill-rule="nonzero"/><path fill="#d15b30" d="M 252.59375 208.183594 C 252.683594 208.183594 252.769531 208.183594 252.769531 208.097656 C 253.03125 207.480469 253.558594 206.515625 253.824219 206.339844 C 253.910156 206.253906 253.910156 206.167969 253.824219 205.992188 C 253.734375 205.902344 253.648438 205.902344 253.472656 205.992188 C 253.03125 206.339844 252.332031 207.746094 252.242188 207.921875 C 252.15625 208.007812 252.242188 208.183594 252.332031 208.183594 C 252.59375 208.183594 252.59375 208.183594 252.59375 208.183594 Z M 252.59375 208.183594 " fill-opacity="1" fill-rule="nonzero"/><path fill="#0f1323" d="M 305.160156 195.816406 C 305.246094 195.816406 305.335938 195.726562 305.421875 195.726562 C 305.507812 195.640625 305.597656 195.550781 305.597656 195.375 L 304.019531 162.214844 C 304.019531 161.953125 303.84375 161.777344 303.578125 161.777344 C 303.316406 161.777344 303.140625 161.953125 303.140625 162.214844 L 304.632812 194.851562 L 290.679688 193.09375 C 290.414062 193.09375 290.242188 193.269531 290.152344 193.445312 C 290.152344 193.710938 290.328125 193.882812 290.503906 193.972656 L 305.160156 195.816406 C 305.070312 195.816406 305.160156 195.816406 305.160156 195.816406 Z M 305.160156 195.816406 " fill-opacity="1" fill-rule="nonzero"/><path fill="#0f1323" d="M 308.40625 215.464844 C 308.582031 215.464844 308.84375 215.289062 308.84375 215.113281 C 308.84375 214.851562 308.667969 214.675781 308.492188 214.589844 L 297.789062 213.183594 C 297.523438 213.183594 297.347656 213.359375 297.261719 213.535156 C 297.171875 213.710938 297.4375 213.972656 297.613281 214.0625 L 308.40625 215.464844 C 308.316406 215.464844 308.40625 215.464844 308.40625 215.464844 Z M 308.40625 215.464844 " fill-opacity="1" fill-rule="nonzero"/><path fill="#0f1323" d="M 272.25 120.984375 C 272.25 120.984375 272.339844 120.984375 272.339844 120.984375 L 276.636719 119.84375 C 276.902344 119.757812 276.988281 119.492188 276.988281 119.316406 C 276.902344 119.054688 276.636719 118.964844 276.464844 118.964844 L 272.164062 120.105469 C 271.898438 120.195312 271.8125 120.457031 271.8125 120.632812 C 271.898438 120.898438 272.074219 120.984375 272.25 120.984375 Z M 272.25 120.984375 " fill-opacity="1" fill-rule="nonzero"/><path fill="#fc8760" d="M 276.550781 127.652344 C 276.636719 128.003906 276.726562 128.265625 276.726562 128.617188 C 277.78125 133.003906 279.445312 136.074219 282.078125 135.984375 C 287.519531 135.808594 291.292969 131.773438 294.1875 129.054688 C 295.332031 128.003906 295.332031 125.371094 295.503906 124.492188 L 295.503906 124.40625 L 295.769531 123.617188 L 298.050781 110.371094 C 298.050781 110.371094 292.433594 105.984375 285.851562 105.019531 C 279.359375 104.140625 275.234375 109.230469 275.234375 109.230469 C 273.917969 115.632812 274.269531 119.054688 276.550781 127.652344 Z M 276.550781 127.652344 " fill-opacity="1" fill-rule="nonzero"/><path fill="#0f1323" d="M 276.8125 128.617188 C 277.867188 133.003906 279.535156 136.074219 282.167969 135.984375 C 287.609375 135.808594 291.382812 131.773438 294.277344 129.054688 C 295.417969 128.003906 295.417969 125.371094 295.59375 124.492188 L 295.59375 124.40625 L 294.890625 121.335938 L 294.015625 121.070312 C 294.015625 121.070312 291.90625 125.808594 288.132812 126.6875 C 288.132812 126.6875 285.0625 126.074219 282.078125 126.335938 C 279.535156 126.597656 277.429688 127.914062 276.8125 128.617188 Z M 276.8125 128.617188 " fill-opacity="0.1" fill-rule="nonzero"/><path fill="#0f1323" d="M 293.925781 121.070312 L 293.046875 116.6875 L 291.996094 114.40625 L 289.890625 113.175781 C 288.835938 112.5625 288.046875 111.421875 287.871094 110.195312 L 287.695312 109.054688 L 286.90625 108.527344 C 286.117188 108.089844 285.238281 107.914062 284.359375 108.265625 L 279.183594 110.019531 L 276.988281 110.195312 C 276.464844 110.28125 276.023438 110.632812 275.761719 111.160156 L 275.148438 113 C 275.148438 113 273.566406 114.667969 273.917969 115.632812 C 274.269531 116.597656 274.621094 117.125 274.621094 117.125 C 274.621094 117.125 273.566406 116.6875 273.039062 115.546875 C 272.515625 114.40625 273.039062 110.28125 275.148438 109.753906 C 275.148438 109.753906 273.128906 106.683594 275.234375 105.71875 C 274.882812 104.753906 274.355469 104.140625 273.128906 104.140625 C 275.847656 100.105469 284.183594 101.332031 284.183594 101.332031 C 288.308594 102.125 297.261719 101.332031 300.683594 108.878906 L 300.417969 109.929688 L 301.386719 110.984375 C 301.910156 111.511719 302.085938 112.300781 301.824219 113.089844 L 298.578125 122.476562 Z M 293.925781 121.070312 " fill-opacity="1" fill-rule="nonzero"/><path fill="#fc8760" d="M 294.804688 120.371094 C 294.804688 120.371094 296.121094 111.773438 300.332031 116.949219 C 302.613281 120.898438 296.648438 124.40625 296.648438 124.40625 L 295.503906 125.195312 Z M 294.804688 120.371094 " fill-opacity="1" fill-rule="nonzero"/><path fill="#fc8760" d="M 279.183594 110.019531 C 282.167969 107.5625 284.097656 104.316406 279.097656 102.914062 C 278.042969 102.648438 276.988281 102.472656 275.9375 102.5625 C 276.988281 102.738281 278.042969 102.914062 279.007812 103.265625 C 283.746094 104.84375 281.464844 107.300781 279.183594 110.019531 Z M 279.183594 110.019531 " fill-opacity="0.2" fill-rule="nonzero"/><path fill="#fc8760" d="M 295.59375 105.632812 C 293.925781 106.949219 292.257812 108.265625 290.242188 109.140625 C 289.625 109.40625 288.835938 109.578125 288.308594 109.316406 C 288.046875 109.230469 287.871094 108.964844 287.609375 108.703125 C 286.992188 107.824219 286.378906 106.859375 285.765625 106.070312 C 284.886719 104.929688 283.746094 103.964844 282.34375 103.4375 C 283.660156 104.140625 284.625 105.105469 285.414062 106.246094 C 285.941406 107.125 286.640625 108.089844 287.167969 108.964844 C 287.34375 109.230469 287.609375 109.667969 288.046875 109.753906 C 288.835938 110.105469 289.625 109.84375 290.328125 109.578125 C 292.433594 108.613281 294.101562 107.125 295.59375 105.632812 Z M 295.59375 105.632812 " fill-opacity="0.2" fill-rule="nonzero"/><path fill="#fc8760" d="M 297.4375 109.140625 C 296.121094 110.28125 294.628906 110.894531 292.875 110.632812 C 294.453125 111.597656 296.648438 110.808594 297.4375 109.140625 Z M 297.4375 109.140625 " fill-opacity="0.2" fill-rule="nonzero"/><path fill="#0f1323" d="M 275.410156 102.648438 C 272.339844 103.351562 270.496094 107.648438 274.179688 108.964844 C 271.109375 107.210938 272.863281 103.878906 275.410156 102.648438 Z M 275.410156 102.648438 " fill-opacity="1" fill-rule="nonzero"/><path fill="#d15b30" d="M 296.472656 121.949219 C 296.558594 121.949219 296.648438 121.949219 296.648438 121.863281 C 297.4375 121.421875 297.4375 120.808594 297.4375 120.28125 C 297.4375 120.105469 297.4375 120.019531 297.347656 119.84375 C 297.347656 119.757812 297.261719 119.582031 297.261719 119.492188 C 297.261719 119.230469 297.261719 119.054688 297.347656 118.878906 C 297.4375 118.792969 297.523438 118.703125 297.699219 118.703125 C 297.960938 118.703125 298.3125 118.792969 298.578125 118.964844 C 298.753906 119.140625 299.015625 119.054688 299.191406 118.878906 C 299.367188 118.703125 299.367188 118.441406 299.105469 118.265625 C 298.664062 117.914062 298.136719 117.738281 297.613281 117.738281 C 297.171875 117.828125 296.820312 118 296.558594 118.351562 C 296.382812 118.703125 296.296875 119.054688 296.382812 119.492188 C 296.382812 119.667969 296.382812 119.757812 296.472656 119.933594 C 296.472656 120.019531 296.558594 120.195312 296.558594 120.28125 C 296.558594 120.632812 296.558594 120.808594 296.207031 120.984375 C 296.03125 121.070312 295.945312 121.335938 296.03125 121.597656 C 296.121094 121.863281 296.296875 121.949219 296.472656 121.949219 Z M 296.472656 121.949219 " fill-opacity="1" fill-rule="nonzero"/><path fill="#0f1323" d="M 275.585938 124.582031 C 275.671875 124.582031 275.847656 124.582031 275.9375 124.582031 C 276.902344 124.492188 277.867188 124.054688 278.480469 123.265625 C 279.097656 122.476562 279.445312 121.511719 279.359375 120.546875 C 279.269531 119.582031 278.832031 118.617188 278.042969 118 C 277.253906 117.386719 276.289062 117.035156 275.324219 117.125 C 273.214844 117.300781 271.722656 119.140625 271.898438 121.246094 C 271.988281 122.210938 272.425781 123.175781 273.214844 123.792969 C 273.832031 124.230469 274.707031 124.582031 275.585938 124.582031 Z M 275.585938 117.914062 C 276.289062 117.914062 276.902344 118.175781 277.429688 118.617188 C 278.042969 119.140625 278.394531 119.84375 278.480469 120.546875 C 278.570312 121.246094 278.304688 122.039062 277.867188 122.652344 C 277.429688 123.265625 276.636719 123.617188 275.9375 123.703125 C 275.148438 123.792969 274.445312 123.527344 273.832031 123.089844 C 273.214844 122.5625 272.863281 121.863281 272.777344 121.160156 C 272.601562 119.582031 273.832031 118.175781 275.410156 118 C 275.410156 117.914062 275.496094 117.914062 275.585938 117.914062 Z M 275.585938 117.914062 " fill-opacity="1" fill-rule="nonzero"/><path fill="#0f1323" d="M 284.359375 123.617188 C 284.449219 123.617188 284.625 123.617188 284.710938 123.617188 C 285.675781 123.527344 286.640625 123.089844 287.257812 122.300781 C 287.871094 121.511719 288.222656 120.546875 288.132812 119.582031 C 288.046875 118.617188 287.609375 117.652344 286.816406 117.035156 C 286.027344 116.421875 285.0625 116.070312 284.097656 116.160156 C 281.992188 116.335938 280.5 118.175781 280.675781 120.28125 C 280.761719 121.246094 281.203125 122.210938 281.992188 122.828125 C 282.605469 123.351562 283.484375 123.617188 284.359375 123.617188 Z M 284.359375 116.949219 C 285.0625 116.949219 285.675781 117.210938 286.203125 117.652344 C 286.816406 118.175781 287.167969 118.878906 287.257812 119.582031 C 287.34375 120.28125 287.082031 121.070312 286.640625 121.6875 C 286.203125 122.300781 285.414062 122.652344 284.710938 122.738281 C 283.921875 122.828125 283.21875 122.5625 282.605469 122.125 C 281.992188 121.597656 281.640625 120.898438 281.554688 120.195312 C 281.378906 118.617188 282.605469 117.210938 284.183594 117.035156 C 284.183594 117.035156 284.273438 116.949219 284.359375 116.949219 Z M 281.027344 120.195312 Z M 281.027344 120.195312 " fill-opacity="1" fill-rule="nonzero"/><path fill="#0f1323" d="M 281.640625 116.511719 C 281.726562 116.511719 281.816406 116.511719 281.902344 116.421875 C 281.992188 116.335938 284.359375 114.757812 286.90625 116.160156 C 287.082031 116.246094 287.34375 116.246094 287.519531 115.984375 C 287.609375 115.808594 287.609375 115.546875 287.34375 115.371094 C 284.273438 113.617188 281.554688 115.546875 281.378906 115.632812 C 281.203125 115.808594 281.113281 116.070312 281.289062 116.246094 C 281.378906 116.421875 281.464844 116.511719 281.640625 116.511719 Z M 281.640625 116.511719 " fill-opacity="1" fill-rule="nonzero"/><path fill="#0f1323" d="M 275.058594 117.210938 C 275.148438 117.210938 275.234375 117.210938 275.324219 117.125 C 275.410156 117.035156 276.902344 116.070312 278.570312 116.949219 C 278.746094 117.035156 279.097656 116.949219 279.183594 116.773438 C 279.269531 116.597656 279.183594 116.246094 279.007812 116.160156 C 276.8125 115.105469 274.972656 116.421875 274.882812 116.421875 C 274.707031 116.597656 274.621094 116.859375 274.796875 117.035156 C 274.796875 117.125 274.882812 117.210938 275.058594 117.210938 Z M 275.058594 117.210938 " fill-opacity="1" fill-rule="nonzero"/><path fill="#0f1323" d="M 284.554688 118.261719 C 284.386719 118.277344 284.25 118.378906 284.144531 118.558594 C 284.042969 118.742188 284.003906 118.953125 284.023438 119.195312 C 284.046875 119.433594 284.125 119.636719 284.261719 119.792969 C 284.398438 119.953125 284.550781 120.027344 284.71875 120.011719 C 284.886719 119.996094 285.023438 119.894531 285.125 119.714844 C 285.230469 119.53125 285.269531 119.320312 285.25 119.078125 C 285.226562 118.839844 285.148438 118.636719 285.011719 118.480469 C 284.875 118.320312 284.722656 118.246094 284.554688 118.261719 Z M 284.554688 118.261719 " fill-opacity="1" fill-rule="nonzero"/><path fill="#0f1323" d="M 277.125 119.339844 C 276.957031 119.355469 276.820312 119.453125 276.71875 119.632812 C 276.613281 119.816406 276.574219 120.027344 276.597656 120.269531 C 276.617188 120.511719 276.699219 120.710938 276.832031 120.871094 C 276.96875 121.03125 277.121094 121.101562 277.289062 121.085938 C 277.457031 121.070312 277.59375 120.972656 277.699219 120.789062 C 277.800781 120.609375 277.84375 120.394531 277.820312 120.15625 C 277.796875 119.914062 277.71875 119.714844 277.582031 119.554688 C 277.445312 119.394531 277.292969 119.324219 277.125 119.339844 Z M 277.125 119.339844 " fill-opacity="1" fill-rule="nonzero"/><path fill="#d15b30" d="M 281.027344 126.246094 C 281.203125 126.246094 281.378906 126.160156 281.464844 125.984375 C 281.554688 125.722656 281.378906 125.457031 281.203125 125.457031 C 279.445312 124.84375 279.269531 124.140625 279.269531 123.441406 C 279.359375 122.828125 279.445312 122.210938 279.710938 121.511719 C 279.972656 120.808594 280.148438 120.019531 280.238281 119.054688 C 280.238281 118.792969 280.0625 118.617188 279.886719 118.527344 C 279.621094 118.527344 279.445312 118.703125 279.359375 118.878906 C 279.269531 119.757812 279.007812 120.457031 278.832031 121.160156 C 278.65625 121.863281 278.480469 122.5625 278.394531 123.265625 C 278.304688 124.667969 279.097656 125.546875 280.851562 126.160156 C 280.9375 126.246094 281.027344 126.246094 281.027344 126.246094 Z M 281.027344 126.246094 " fill-opacity="1" fill-rule="nonzero"/><path fill="#d15b30" d="M 281.726562 130.195312 C 284.097656 130.195312 285.152344 129.054688 285.851562 128.265625 C 286.027344 128.089844 286.027344 127.828125 285.851562 127.652344 C 285.675781 127.476562 285.414062 127.476562 285.238281 127.652344 C 284.449219 128.441406 283.484375 129.582031 280.675781 129.230469 C 280.410156 129.144531 280.238281 129.320312 280.148438 129.582031 C 280.148438 129.84375 280.238281 130.019531 280.5 130.109375 C 280.9375 130.195312 281.289062 130.195312 281.726562 130.195312 Z M 281.726562 130.195312 " fill-opacity="1" fill-rule="nonzero"/><path fill="#0f1323" d="M 286.992188 118.265625 C 286.992188 118.265625 287.082031 118.265625 287.082031 118.265625 L 295.945312 115.722656 C 296.207031 115.632812 296.296875 115.371094 296.207031 115.195312 C 296.121094 114.929688 295.945312 114.84375 295.679688 114.929688 L 286.816406 117.476562 C 286.554688 117.5625 286.46875 117.828125 286.554688 118 C 286.640625 118.175781 286.816406 118.265625 286.992188 118.265625 Z M 286.992188 118.265625 " fill-opacity="1" fill-rule="nonzero"/><path fill="#0f1323" d="M 278.65625 119.933594 C 278.746094 119.933594 278.832031 119.933594 278.921875 119.84375 C 279.710938 119.230469 280.238281 119.230469 281.027344 119.492188 C 281.289062 119.582031 281.554688 119.492188 281.554688 119.230469 C 281.640625 118.964844 281.554688 118.703125 281.289062 118.703125 C 280.148438 118.265625 279.359375 118.441406 278.394531 119.230469 C 278.21875 119.40625 278.128906 119.667969 278.304688 119.84375 C 278.394531 119.933594 278.480469 119.933594 278.65625 119.933594 Z M 278.65625 119.933594 " fill-opacity="1" fill-rule="nonzero"/><path fill="#0f1323" d="M 261.71875 164.320312 C 261.984375 164.320312 262.160156 164.144531 262.160156 163.882812 C 262.335938 160.636719 265.757812 155.371094 265.757812 155.371094 C 265.84375 155.199219 265.84375 154.933594 265.667969 154.757812 C 265.492188 154.671875 265.230469 154.671875 265.054688 154.847656 C 264.878906 155.023438 261.457031 160.285156 261.28125 163.792969 C 261.28125 164.058594 261.457031 164.320312 261.71875 164.320312 Z M 261.71875 164.320312 " fill-opacity="1" fill-rule="nonzero"/></svg>